<?xml version="1.0" encoding="UTF-8" standalone="no"?>
<svg width="204px" height="204px" viewBox="0 0 204 204" version="1.1" xmlns="http://www.w3.org/2000/svg" xmlns:xlink="http://www.w3.org/1999/xlink" xmlns:sketch="http://www.bohemiancoding.com/sketch/ns">
    <!-- Generator: Sketch 3.2.2 (9983) - http://www.bohemiancoding.com/sketch -->
    <title>Clear Phone</title>
    <desc>Created with Sketch.</desc>
    <defs></defs>
    <g id="Page-1" stroke="none" stroke-width="1" fill="none" fill-rule="evenodd" sketch:type="MSPage">
        <g id="Clear-Phone" sketch:type="MSLayerGroup" transform="translate(2.000000, 2.000000)" stroke="#FFFFFF">
            <circle id="Oval-1" stroke-width="3" sketch:type="MSShapeGroup" cx="100" cy="100" r="100"></circle>
            <g id="Phone-2" transform="translate(64.000000, 23.000000)" sketch:type="MSShapeGroup">
                <path d="M65.52,28.005291 L65.52,6.19362963 C65.52,3.22007185 63.1023376,0.793650794 60.12,0.793650794 C57.1437308,0.793650794 54.72,3.21130367 54.72,6.19362963 L54.72,28.005291 L5.75521503,28.005291 C2.58374631,28.005291 0,30.579986 0,33.7560333 L0,136.249258 C0,139.418517 2.57669754,142 5.75521503,142 L66.244785,142 C69.4162537,142 72,139.425305 72,136.249258 L72,33.7560333 C72,30.5867744 69.4233025,28.005291 66.244785,28.005291 L65.52,28.005291 Z" id="Rectangle-15" stroke-width="5"></path>
                <path d="M43.2,30.5 L65.52,30.5" id="Line" stroke-width="5" stroke-linecap="square" fill="#3C0046"></path>
                <g id="Rectangle-11-+-Rectangle-10-+-Rectangle-9" transform="translate(10.800000, 80.222222)" stroke-width="3">
                    <rect id="Rectangle-11" x="0" y="0" width="14.4" height="14.7089947" rx="5.76"></rect>
                    <rect id="Rectangle-10" x="18" y="0" width="14.4" height="14.7089947" rx="5.76"></rect>
                    <rect id="Rectangle-9" x="36" y="0" width="14.4" height="14.7089947" rx="5.76"></rect>
                </g>
                <g id="Rectangle-11-+-Rectangle-10-+-Rectangle-10" transform="translate(10.800000, 97.873016)" stroke-width="3">
                    <rect id="Rectangle-11" x="0" y="0" width="14.4" height="14.7089947" rx="5.76"></rect>
                    <rect id="Rectangle-10" x="18" y="0" width="14.4" height="14.7089947" rx="5.76"></rect>
                    <rect id="Rectangle-9" x="36" y="0" width="14.4" height="14.7089947" rx="5.76"></rect>
                </g>
                <g id="Rectangle-11-+-Rectangle-10-+-Rectangle-11" transform="translate(10.800000, 115.523810)" stroke-width="3">
                    <rect id="Rectangle-11" x="0" y="0" width="14.4" height="14.7089947" rx="5.76"></rect>
                    <rect id="Rectangle-10" x="18" y="0" width="14.4" height="14.7089947" rx="5.76"></rect>
                    <rect id="Rectangle-9" x="36" y="0" width="14.4" height="14.7089947" rx="5.76"></rect>
                </g>
                <rect id="Rectangle-5" stroke-width="5" x="10.8" y="39.037037" width="50.4" height="36.7724868" rx="5.76"></rect>
            </g>
        </g>
    </g>
</svg>